<svg xmlns="http://www.w3.org/2000/svg" xmlns:xlink="http://www.w3.org/1999/xlink" width="256" height="256" xmlns:v="https://vecta.io/nano"><path d="M227.3 256H28.7C12.9 256 0 243.1 0 227.3V28.7C0 12.9 12.9 0 28.7 0h198.6C243.1 0 256 12.9 256 28.7v198.6c0 15.8-12.9 28.7-28.7 28.7" fill="#0b2530"/><path d="M199.3 182.1H40a15.88 15.88 0 0 1-15.9-15.9v-121A15.88 15.88 0 0 1 40 29.3h159.3a15.88 15.88 0 0 1 15.9 15.9v121c0 8.7-7.1 15.9-15.9 15.9" fill="#3397e8"/><path d="M215.2,160.7v7.1c0,7.9-7.1,14.3-15.9,14.3H40c-8.8,0-15.9-6.4-15.9-14.3v-7.1H215.2z" fill="#e9eef2"/><path d="M44.7 42.3c-4.6 0-8.3 2.7-8.3 6.1v97.7c0 3.4 3.7 6.1 8.3 6.1h149c4.6 0 8.3-2.7 8.3-6.1V48.4c0-3.4-3.7-6.1-8.3-6.1h-149m98.8 139.8h-39.8l-6 27.9h51.8z" fill="#cecece"/><path d="M201.9,49.4c0-4.2-3.7-7.5-8.3-7.5h-149c-4.6,0-8.3,3.4-8.3,7.5V58h165.5V49.4" fill="#e9eef2"/><circle cx="47.6" cy="51.3" r="3.2" fill="#eb423f"/><circle cx="58.9" cy="51.3" r="3.2" fill="#ffd33a"/><circle cx="70.1" cy="51.3" r="3.2" fill="#3dc285"/><path d="M104.9 119c.8-1.5 1.4-3.1 1.9-4.6h8.1V99.8h-8.1c-.5-1.6-1.1-3.2-1.9-4.6l6.3-6.3-11-11-6.3 6.3c-1.5-.8-3.1-1.4-4.6-1.9v-8.1H74.7v8.1c-1.6.5-3.2 1.1-4.6 1.9l-6.3-6.3-11 11 6.3 6.3c-.8 1.5-1.4 3.1-1.9 4.6h-8.1v14.6h8.1c.5 1.6 1.1 3.2 1.9 4.6l-6.3 6.3 11 11L70 130c1.5.8 3.1 1.4 4.6 1.9v8.1h14.6v-8.1c1.6-.5 3.2-1.1 4.6-1.9l6.3 6.3 11-11-6.2-6.3z" fill="#2978b8"/><circle cx="82" cy="107.1" r="18.1" fill="#e9eef2"/><circle cx="82" cy="107.1" r="10.1" fill="#2978b8"/><path d="M174.264 157.762l15.929-10.537 17.82 26.938-15.929 10.537z" fill="#a5a5a5"/><path d="M233.9 204.4l-23.2-35.1-22.9 15.2 23.2 35.1c2.1 3.2 5.3 5.2 8.7 5.9s7.2.1 10.3-2c6.3-4.2 8.1-12.8 3.9-19.1z" fill="#73787a"/><path d="M151.8 166.5c-4.3 0-8.6-.5-12.9-1.4-32.5-6.9-53.9-39.1-47.5-71.8 5.6-28.8 30.9-49.7 60.2-49.7 4.3 0 8.6.5 12.9 1.4 32.6 6.9 53.9 39.1 47.5 71.8-5.6 28.8-30.9 49.7-60.2 49.7" fill="#e9eef2"/><path d="M151.6 48.6c3.9 0 7.9.4 11.8 1.2 29.9 6.4 49.5 36 43.7 66-2.5 12.9-9.5 24.7-19.7 33-10.1 8.2-22.7 12.7-35.6 12.7-3.9 0-7.9-.4-11.8-1.2-29.9-6.4-49.5-36-43.7-66 2.5-12.9 9.5-24.7 19.7-33 10.1-8.2 22.7-12.7 35.6-12.7m0-10c-31.1 0-58.9 22-65.1 53.7-6.9 35.4 16.1 70.1 51.4 77.6 4.7 1 9.3 1.5 13.9 1.5 31.1 0 58.9-22 65.1-53.7 6.9-35.4-16.1-70.1-51.4-77.6-4.6-1-9.3-1.5-13.9-1.5z" fill="#73787a"/><g fill="#2978b8"><path d="M116.5 104.1V115h-7.4V83.1h13c3.8 0 6.8 1 9 2.9s3.3 4.5 3.3 7.6-1.1 5.7-3.3 7.6-5.2 2.9-9 2.9h-5.6zm0-5.7h5.5c1.6 0 2.8-.4 3.7-1.3.8-.9 1.3-2 1.3-3.4s-.4-2.6-1.3-3.5c-.8-.9-2.1-1.4-3.7-1.4h-5.5v9.6zm48.7 16.6h-7.4v-12.8H146V115h-7.4V83.1h7.4v13.4h11.8V83.1h7.4V115m12.5-10.9V115h-7.4V83.1h13c3.8 0 6.8 1 9 2.9s3.3 4.5 3.3 7.6-1.1 5.7-3.3 7.6-5.2 2.9-9 2.9h-5.6m0-5.7h5.5c1.6 0 2.8-.4 3.7-1.3.8-.9 1.3-2 1.3-3.4s-.4-2.6-1.3-3.5c-.8-.9-2.1-1.4-3.7-1.4h-5.5v9.6m-62.2 30.5c0-.4-.2-.7-.5-1s-.8-.5-1.6-.7c-1.1-.3-1.9-.7-2.5-1.1a2.32 2.32 0 0 1-.9-1.9c0-.8.3-1.4 1-2 .7-.5 1.5-.8 2.5-.8 1.1 0 1.9.3 2.6.9s1 1.3.9 2.1h0-1.6c0-.5-.2-.9-.5-1.2s-.8-.5-1.5-.5c-.6 0-1.1.1-1.4.4s-.5.6-.5 1 .2.7.5.9.9.5 1.7.7c1.1.3 1.9.7 2.4 1.2s.8 1.1.8 1.9-.3 1.5-1 2-1.5.7-2.6.7c-1 0-1.9-.3-2.7-.8s-1.2-1.3-1.1-2.2h0 1.6c0 .6.2 1 .6 1.3s1 .4 1.6.4 1.1-.1 1.4-.4c.6-.1.8-.5.8-.9z"/><path d="M124.8 127h-4.3v3.1h5v1.3h-6.6v-9.8h6.6v1.3h-5v2.8h4.3z"/><use xlink:href="#B"/><path d="M139 128.9l.2.7h0l.2-.7 2.4-7.3h1.7l-3.5 9.8h-1.6l-3.5-9.8h1.8zm11.6-1.9h-4.3v3.1h5v1.3h-6.6v-9.8h6.6v1.3h-5v2.8h4.3z"/><use xlink:href="#B" x="25.9"/><path d="M165.4 121.6h1.6v9.8h-1.6zm11.6 9.8h-1.7l-4.3-7.1h-.1v7.1h-1.6v-9.8h1.6l4.4 7.2h0v-7.2h1.7zm8.1-4.1h-4.3v4.1h-1.7v-9.8h6.7v1.3h-5v3h4.3v1.4m9.7.1c0 1.2-.4 2.2-1.1 3-.8.8-1.7 1.2-2.9 1.2s-2.1-.4-2.9-1.2c-.7-.8-1.1-1.8-1.1-3v-1.8c0-1.2.4-2.2 1.1-3s1.7-1.2 2.9-1.2 2.2.4 2.9 1.2c.8.8 1.1 1.8 1.1 3v1.8m-1.6-1.8c0-.8-.2-1.5-.7-2-.4-.5-1-.8-1.8-.8-.7 0-1.3.3-1.7.8s-.6 1.2-.6 2v1.8c0 .8.2 1.5.6 2s1 .8 1.7.8c.8 0 1.3-.3 1.8-.8a3.22 3.22 0 0 0 .7-2v-1.8"/></g><path d="M183.2 88.8h-5.5v9.6h5.5c1.6 0 2.8-.4 3.7-1.3.8-.9 1.3-2 1.3-3.4s-.4-2.6-1.3-3.5c-.9-1-2.1-1.4-3.7-1.4m7.6 42.8c-1.2 0-2.1-.4-2.9-1.2-.7-.8-1.1-1.8-1.1-3v-1.8c0-1.2.4-2.2 1.1-3s1.7-1.2 2.9-1.2 2.2.4 2.9 1.2c.8.8 1.1 1.8 1.1 3v1.8c0 1.2-.4 2.2-1.1 3-.8.8-1.7 1.2-2.9 1.2m-41.2-77.7c-5.8 0-11.5 1-16.8 2.8 15.5 7.5 28.4 19 37.4 33v-6.6h13c3.8 0 6.8 1 9 2.9s3.3 4.5 3.3 7.6-1.1 5.7-3.3 7.6-5.2 2.9-9 2.9h-5.4c2.4 5.6 4.2 11.5 5.4 17.5h2.5v1.3h-2.3c.2 1 .4 2 .5 3h1.1v1.3h-.9c.8 5.7 1 11.6.7 17.5 8-7.3 13.8-17.1 16.1-28.6 5.4-27.9-12.7-55.3-40.5-61.2-3.5-.7-7.2-1-10.8-1" fill="#d5dee6"/><path d="M177.7 98.4v-9.6h5.5c1.6 0 2.8.5 3.7 1.4.8.9 1.3 2.1 1.3 3.5s-.4 2.5-1.3 3.4c-.8.9-2.1 1.3-3.7 1.3h-5.5m5.5-15.3h-13v6.6c2.9 4.6 5.5 9.4 7.6 14.4h5.4c3.8 0 6.8-1 9-2.9s3.3-4.5 3.3-7.6-1.1-5.7-3.3-7.6c-2.2-2-5.2-2.9-9-2.9m1.9 42.8H184c.1.4.1.9.2 1.3h.9v-1.3m.7-4.3h-2.5l.3 1.3h2.3v-1.3" fill="#2570af"/><path d="M190.8 122.8c-.7 0-1.3.3-1.7.8s-.6 1.2-.6 2v1.8c0 .8.2 1.5.6 2s1 .8 1.7.8c.8 0 1.3-.3 1.8-.8a3.22 3.22 0 0 0 .7-2v-1.8c0-.8-.2-1.5-.7-2s-1.1-.8-1.8-.8" fill="#d5dee6"/><path d="M190.8 130.2c-.7 0-1.3-.3-1.7-.8s-.6-1.2-.6-2v-1.8c0-.8.2-1.5.6-2s1-.8 1.7-.8 1.3.3 1.8.8a3.22 3.22 0 0 1 .7 2v1.8c0 .8-.2 1.5-.7 2-.5.6-1.1.8-1.8.8m0-8.7c-1.2 0-2.1.4-2.9 1.2-.7.8-1.1 1.8-1.1 3v1.8c0 1.2.4 2.2 1.1 3s1.7 1.2 2.9 1.2 2.2-.4 2.9-1.2c.8-.8 1.1-1.8 1.1-3v-1.8c0-1.2-.4-2.2-1.1-3-.8-.8-1.7-1.2-2.9-1.2" fill="#2570af"/><path d="M172.3 209.8H74.9c-9.1 0-16.6 7-16.6 15.5h0 130.5 0c.1-8.6-7.4-15.5-16.5-15.5z" fill="#e9eef2"/><g fill="#a5a5a5"><path d="M222.5 218.3h0c-2 1.4-4.8.8-6.1-1.2l-18.6-27.3c-1.4-2-.8-4.8 1.2-6.1h0c2-1.4 4.8-.8 6.1 1.2l18.6 27.3a4.47 4.47 0 0 1-1.2 6.1z"/><ellipse transform="matrix(.8258 -.564 .564 .8258 -64.8435 142.891)" cx="198.9" cy="176.4" rx="13.7" ry="3"/></g><defs ><path id="B" d="M128.5 127.4v4.1h-1.6v-9.8h3.6c1.1 0 1.9.2 2.5.7s.9 1.2.9 2.1c0 .5-.1.9-.4 1.3s-.6.7-1.2.9c.6.2 1 .5 1.2.9s.4.9.4 1.5v.8c0 .3 0 .6.1.8.1.3.2.5.4.6v.2h-1.7c-.2-.1-.3-.4-.3-.7-.1-.3-.1-.6-.1-.9v-.9c0-.5-.1-.9-.4-1.2s-.7-.4-1.2-.4h-2.2zm0-1.4h1.9c.7 0 1.1-.1 1.4-.4s.5-.6.5-1.2c0-.5-.1-.9-.4-1.2s-.8-.4-1.4-.4h-2v3.2z"/></defs></svg>